<?xml version="1.0" encoding="UTF-8"?><svg id="Ebene_2" xmlns="http://www.w3.org/2000/svg" viewBox="0 0 483.18 225.08"><defs><style>.cls-1{fill:#e42522;}.cls-2{fill:none;}</style></defs><g id="Ebene_1-2"><polygon class="cls-2" points="0 0 483.18 0 483.16 144.45 438.21 144.46 483.16 189.39 483.18 225.08 0 225.08 0 0"/><path class="cls-1" d="M94.54,102.75h-27.89V58.14h26.54c2.72-.09,5.72,.35,8.97,1.34,3.26,.97,6.09,2.99,8.47,6.06,2.39,3.07,3.65,7.69,3.76,13.91v1.77c-.3,9.24-2.54,15.22-6.74,17.92-4.2,2.69-8.57,3.9-13.11,3.61Zm14.78,25.66c-4.56-2.97-9.33-4.33-14.33-4.08h-28.34v49.31h27.66c2.66,.08,5.73-.43,9.16-1.53,3.43-1.09,6.46-3.25,9.07-6.48,2.59-3.22,3.94-7.99,4.07-14.29v-4.47c-.31-9.33-2.74-15.49-7.29-18.47Zm373.86,60.54v36.14H0V0H483.18V144.36h-44.6l44.6,44.59Zm-344.97-42.29c.04-2.97-.5-6.62-1.63-10.97-1.13-4.34-3.09-8.59-5.85-12.73-2.78-4.15-6.59-7.4-11.45-9.76,6.73-4.23,11.21-9.46,13.42-15.69,2.22-6.25,3.24-11.52,3.06-15.86v-2.43c.15-4.93-.8-10.7-2.87-17.28-2.06-6.6-6.17-12.41-12.32-17.45-6.15-5.03-15.27-7.68-27.39-7.96H45.07V195.23h49.24c12.13-.26,21.37-2.96,27.74-8.07,6.36-5.12,10.68-11.02,12.96-17.69,2.27-6.68,3.36-12.5,3.21-17.45v-5.35Zm114.06,27.65h-31.88V36.08l-44.78,3.56v20.93l23.4-1.78v115.74h-31.65v20.71h84.9v-20.93Zm48.77-.67v-11.15c.04-3.87,1.12-7.43,3.24-10.67,2.1-3.24,4.97-6.29,8.59-9.17,6.11-4.86,13.12-9.62,21.01-14.27,7.9-4.64,14.8-9.4,20.69-14.26,4.99-4.33,9.08-9.24,12.24-14.78,3.16-5.53,4.79-11.91,4.9-19.12-.2-13.59-4.47-24.43-12.79-32.55-8.29-8.1-19.42-12.26-33.33-12.46-11.8,.28-21.05,3.23-27.78,8.8-6.71,5.58-11.45,12.06-14.24,19.45-2.76,7.37-4.15,13.93-4.12,19.65h21.81c.3-7.56,1.88-13.28,4.77-17.15,2.88-3.87,6.16-6.47,9.88-7.78,3.7-1.32,6.91-1.92,9.67-1.84,7.75,.02,13.76,2.11,18.03,6.25,4.27,4.15,6.43,10.24,6.5,18.28-.03,3.35-.86,6.47-2.51,9.37-1.65,2.9-3.93,5.56-6.86,8.03-6.18,5-12.84,9.59-20.02,13.77-7.18,4.16-13.97,8.64-20.36,13.43-6.03,4.51-11,9.8-14.89,15.92-3.89,6.1-5.9,13.34-6.03,21.75v32.09h92.26v-21.61h-70.67Z"/></g></svg>