<svg id="ic24-volume-loud" xmlns="http://www.w3.org/2000/svg" width="24" height="24" viewBox="0 0 24 24">
  <rect id="BB" width="24" height="24" fill="none"/>
  <path id="volume_loud" data-name="volume loud" d="M5.8,16.029l5.19,4.006V3.94L5.8,8.029H2.006v8Zm.682-2H4.006v-4H6.491l2.5-1.97v7.905ZM18.942,4.047l-1.56,1.248a9.923,9.923,0,0,1,0,13.411l1.56,1.248a11.91,11.91,0,0,0,0-15.907ZM14.986,7.211l-1.562,1.25a5.177,5.177,0,0,1,0,7.079l1.562,1.25a7.166,7.166,0,0,0,0-9.578Z" transform="translate(-0.006 0.059)" fill="#fff" fill-rule="evenodd"/>
</svg>
