<svg id="ic24-position_default" xmlns="http://www.w3.org/2000/svg" width="24" height="24" viewBox="0 0 24 24">
  <rect id="Rechteck_14836" data-name="Rechteck 14836" width="24" height="24" fill="none"/>
  <path id="Pfad_648" data-name="Pfad 648" d="M20.029,10.055c0-2.494-2.863-4.486-7.015-5.138V6.96c3,.555,5.015,1.879,5.015,3.1,0,1.47-2.94,3.1-7.015,3.333V.055h-2V13.388C4.939,13.153,2,11.525,2,10.055c0-1.216,2.013-2.54,5.014-3.1V4.917C2.863,5.569,0,7.561,0,10.055c0,2.877,3.81,5.087,9.014,5.339v4.661h2V15.394c5.2-.252,9.015-2.462,9.015-5.339" transform="translate(2 1.945)" fill="#fff"/>
</svg>
