<svg id="ic24-location" xmlns="http://www.w3.org/2000/svg" width="24" height="24" viewBox="0 0 24 24">
  <rect id="BB" width="24" height="24" fill="none"/>
  <g id="location" transform="translate(0.043 -0.359)">
    <path id="Pfad_641" data-name="Pfad 641" d="M12,6.36a3,3,0,1,0,3,3A3,3,0,0,0,12,6.36Zm0,4a1,1,0,1,1,1-1A1,1,0,0,1,12,10.36Z" fill="#fff" fill-rule="evenodd"/>
    <path id="Pfad_642" data-name="Pfad 642" d="M18.57,6.91a6.51,6.51,0,0,0-4-4.13,8.17,8.17,0,0,0-5.17,0,6.51,6.51,0,0,0-4,4.13,6.87,6.87,0,0,0,.56,6l6,8.5,6-8.54A6.84,6.84,0,0,0,18.57,6.91Zm-2.19,4.81L12,17.91,7.64,11.75a4.9,4.9,0,0,1-.33-4.18,4.56,4.56,0,0,1,2.74-2.9A6.08,6.08,0,0,1,12,4.36a6,6,0,0,1,1.94.31,4.57,4.57,0,0,1,2.75,2.9A4.93,4.93,0,0,1,16.38,11.72Z" fill="#fff" fill-rule="evenodd"/>
  </g>
</svg>
