<svg id="ic24-interaction-click" xmlns="http://www.w3.org/2000/svg" width="24" height="24" viewBox="0 0 24 24">
  <rect id="BB" width="24" height="24" fill="none"/>
  <g id="interaction_click" data-name="interaction click" transform="translate(0.008 0.008)">
    <path id="Pfad_680" data-name="Pfad 680" d="M17.452,5.971l.614-.614L16.652,3.943,13.831,6.766l1.413,1.413Z" fill="#fff"/>
    <path id="Pfad_681" data-name="Pfad 681" d="M15.238,8.186l2.214-2.215.62-.621L16.658,3.936,13.83,6.765h0l-.006.006Z" fill="#fff"/>
    <path id="Pfad_682" data-name="Pfad 682" d="M8.18,6.772,5.344,3.938,3.93,5.352,6.759,8.18h0l.007.007Z" fill="#fff"/>
    <path id="Pfad_683" data-name="Pfad 683" d="M6.757,13.839,4.544,16.054l-.621.62,1.414,1.414,2.834-2.835Z" fill="#fff"/>
    <path id="Pfad_684" data-name="Pfad 684" d="M6,10H1.992v2H6Z" fill="#fff"/>
    <path id="Pfad_685" data-name="Pfad 685" d="M12,6V1.992H10V6Z" fill="#fff"/>
    <path id="Pfad_686" data-name="Pfad 686" d="M22.007,12.454,8.919,8.92l0,.009-.006,0,3.534,13.088,2.937-2.938,2.793,2.794,3.685-3.684-2.8-2.794Zm-2.689,5.733-1.132,1.132-2.794-2.794-2.011,2.011-1.9-7.053,0-.009,7.062,1.907-2.013,2.012Z" fill="#fff"/>
  </g>
</svg>
