<svg id="ic24-position_moved" xmlns="http://www.w3.org/2000/svg" width="24" height="24" viewBox="0 0 24 24">
  <rect id="Rechteck_14837" data-name="Rechteck 14837" width="24" height="24" fill="none"/>
  <path id="Pfad_649" data-name="Pfad 649" d="M63.572,7.063c-.523-1.667-2.314-2.677-4.767-2.921l-.562,1.983c1.854.113,3.156.691,3.421,1.536.473,1.515-2.267,4.235-6.644,5.606-.321.1-.637.186-.95.265L57.7.706,55.776.161l-1.584,5.6.387-1.368h0l-.621,2.2h0l-2.08,7.347c-2.934.316-5.157-.345-5.513-1.481-.423-1.353,1.72-3.663,5.3-5.12l.671-2.368c-5.4,1.714-8.787,5.181-7.878,8.086.6,1.929,2.9,2.982,5.969,2.982.281,0,.575-.019.868-.037l-.966,3.411,1.925.545,1.2-4.237a19.89,19.89,0,0,0,2.166-.538c5.448-1.7,8.867-5.193,7.954-8.112" transform="translate(-42.311 1.84)" fill="#fff"/>
</svg>
