<svg id="ic24-transparency_disabled" xmlns="http://www.w3.org/2000/svg" width="24" height="24" viewBox="0 0 24 24">
  <rect id="Rechteck_14839" data-name="Rechteck 14839" width="24" height="24" fill="none"/>
  <path id="Pfad_651" data-name="Pfad 651" d="M152.016,7.361A7.327,7.327,0,0,0,137.58,5.589a7.323,7.323,0,1,0,8.766,8.909,7.36,7.36,0,0,0,5.67-7.137m-8.34-.467,3.962-3.963a5.379,5.379,0,0,1,1.42,1.4l-3.975,3.976a7.374,7.374,0,0,0-1.407-1.411m1.014-4.859a5.3,5.3,0,0,1,.923.093l-3.752,3.753a7.245,7.245,0,0,0-2.113-.465,5.358,5.358,0,0,1,4.942-3.381m-5.442,16.009a5.327,5.327,0,1,1,5.326-5.326,5.333,5.333,0,0,1-5.326,5.326m7.307-5.707a7.263,7.263,0,0,0-.464-2.213l3.818-3.818a5.3,5.3,0,0,1-3.354,6.031" transform="translate(-129.922 1.965)" fill="#fff"/>
</svg>
