<svg id="ic24-transparency_enabled" xmlns="http://www.w3.org/2000/svg" width="24" height="24" viewBox="0 0 24 24">
  <rect id="Rechteck_14838" data-name="Rechteck 14838" width="24" height="24" fill="none"/>
  <path id="Pfad_650" data-name="Pfad 650" d="M108.016,7.361A7.322,7.322,0,0,0,93.59,5.587a7.323,7.323,0,1,0,8.759,8.9,7.334,7.334,0,0,0,5.667-7.13m-7.446,5.314a5.34,5.34,0,0,1-.935-.094l.841-.841a5.33,5.33,0,0,1,.094.935m-2.912-.945a5.364,5.364,0,0,1-1.4-1.42l1.988-1.989a5.394,5.394,0,0,1,1.408,1.41ZM95.368,7.4a5.348,5.348,0,0,1,.882.09l-.793.792a5.222,5.222,0,0,1-.089-.882m4.308-.508,3.962-3.963a5.335,5.335,0,0,1,1.42,1.4L101.083,8.3a7.34,7.34,0,0,0-1.407-1.41m1.014-4.859a5.3,5.3,0,0,1,.923.093L97.861,5.88a7.272,7.272,0,0,0-2.117-.465,5.326,5.326,0,0,1,4.946-3.38M95.248,18.044a5.316,5.316,0,0,1-1.865-10.3,7.324,7.324,0,0,0,6.812,6.916,5.328,5.328,0,0,1-4.947,3.382m7.307-5.712a7.3,7.3,0,0,0-.463-2.208l3.817-3.818a5.295,5.295,0,0,1-3.354,6.026" transform="translate(-85.922 1.965)" fill="#fff"/>
</svg>
