<?xml version="1.0" encoding="UTF-8"?><svg id="a" xmlns="http://www.w3.org/2000/svg" viewBox="0 0 62 62"><defs><style>.b{fill:#fff;}</style></defs><path class="b" d="M31.03,16.54c10.98,.4,19.49,5.12,25.35,14.51,.12,.2,.1,.34-.01,.53-4.46,7.28-10.84,11.92-19.18,13.81-2.74,.62-5.53,.82-8.33,.57-9.48-.84-16.93-5.21-22.35-13.03-.31-.45-.58-.93-.88-1.39-.1-.16-.12-.28-.01-.45,2.84-4.76,6.7-8.47,11.59-11.09,2.68-1.43,5.51-2.42,8.5-2.95,1.75-.31,3.52-.5,5.33-.51Zm-.01,5.56c-4.78-.03-9.15,3.76-9.22,9.11-.07,5.14,4.1,9.28,9.21,9.31,4.75,.02,9.58-3.93,9.18-9.9-.33-4.96-4.49-8.52-9.17-8.51Zm8.85,18.66c.09-.03,.17-.05,.26-.08,4.84-1.88,8.79-4.91,11.85-9.1,.15-.2,.14-.33,0-.54-2.74-3.77-6.23-6.61-10.47-8.53-.53-.24-1.08-.45-1.62-.67l-.05,.06c2.63,2.58,4.05,5.69,4.06,9.39,0,3.71-1.41,6.84-4.02,9.48ZM22.13,21.86s-.1,.02-.14,.04c-4.9,1.88-8.89,4.93-11.98,9.18-.14,.19-.1,.32,.02,.49,2.85,3.92,6.5,6.84,10.95,8.75,.38,.17,.78,.31,1.17,.46-2.61-2.63-4.02-5.76-4.03-9.45,0-3.7,1.41-6.84,4.01-9.47Z"/><path class="b" d="M36.59,31.29c0,3.07-2.5,5.59-5.56,5.59-3.07,0-5.59-2.48-5.6-5.55-.02-3.08,2.49-5.59,5.58-5.61,3.06-.01,5.58,2.5,5.58,5.57Z"/></svg>